HIERARCHY
ROOT Hips
{
	OFFSET 0.0000 0.0000 0.0000
	CHANNELS 6 Xposition Yposition Zposition Zrotation Xrotation Yrotation
	JOINT Ab
	{
		OFFSET -0.0000 8.0846 -0.0000
		CHANNELS 3 Zrotation Xrotation Yrotation
		JOINT Chest
		{
			OFFSET -0.0000 25.0068 -0.0000
			CHANNELS 3 Zrotation Xrotation Yrotation
			JOINT Neck
			{
				OFFSET -0.0000 25.0068 0.0000
				CHANNELS 3 Zrotation Xrotation Yrotation
				JOINT Head
				{
					OFFSET -0.0000 10.7556 0.0000
					CHANNELS 3 Zrotation Xrotation Yrotation
					End Site
					{
						OFFSET -0.0000 16.6222 0.0000
					}
				}
			}
			JOINT LeftCollar
			{
				OFFSET -0.0000 25.0068 0.0000
				CHANNELS 3 Zrotation Xrotation Yrotation
				JOINT LeftShoulder
				{
					OFFSET 19.5556 -0.0000 0.0000
					CHANNELS 3 Zrotation Xrotation Yrotation
					JOINT LeftElbow
					{
						OFFSET 27.1828 0.0000 0.0000
						CHANNELS 3 Zrotation Xrotation Yrotation
						JOINT LeftWrist
						{
							OFFSET 23.3157 0.0000 0.0000
							CHANNELS 3 Zrotation Xrotation Yrotation
							End Site
							{
								OFFSET 0.0000 -14.6667 0.0000
							}
						}
					}
				}
			}
			JOINT RightCollar
			{
				OFFSET -0.0000 25.0068 0.0000
				CHANNELS 3 Zrotation Xrotation Yrotation
				JOINT RightShoulder
				{
					OFFSET -19.5556 0.0000 0.0000
					CHANNELS 3 Zrotation Xrotation Yrotation
					JOINT RightElbow
					{
						OFFSET -27.1828 0.0000 0.0000
						CHANNELS 3 Zrotation Xrotation Yrotation
						JOINT RightWrist
						{
							OFFSET -23.3157 0.0000 0.0000
							CHANNELS 3 Zrotation Xrotation Yrotation
							End Site
							{
								OFFSET -0.0000 -14.6667 0.0000
							}
						}
					}
				}
			}
		}
	}
	JOINT LeftHip
	{
		OFFSET 11.7333 0.0000 0.0000
		CHANNELS 3 Zrotation Xrotation Yrotation
		JOINT LeftKnee
		{
			OFFSET -0.0000 -40.8688 0.0000
			CHANNELS 3 Zrotation Xrotation Yrotation
			JOINT LeftAnkle
			{
				OFFSET -0.0000 -44.4337 0.0000
				CHANNELS 3 Zrotation Xrotation Yrotation
				End Site
				{
					OFFSET -0.0000 -4.8889 16.6222
				}
			}
		}
	}
	JOINT RightHip
	{
		OFFSET -11.7333 0.0000 0.0000
		CHANNELS 3 Zrotation Xrotation Yrotation
		JOINT RightKnee
		{
			OFFSET -0.0000 -40.8688 0.0000
			CHANNELS 3 Zrotation Xrotation Yrotation
			JOINT RightAnkle
			{
				OFFSET -0.0000 -44.4337 0.0000
				CHANNELS 3 Zrotation Xrotation Yrotation
				End Site
				{
					OFFSET -0.0000 -4.8889 16.6222
				}
			}
		}
	}
}
MOTION
Frames: 23
Frame Time: 0.010000
-5.6705 88.7703 189.1054 2.5901 359.4032 177.2114 1.4882 359.0243 358.2313 359.0107 11.8541 358.3217 0.6557 351.6006 1.1454 2.2514 18.1699 0.7315 339.0772 358.5591 7.9072 301.6248 31.9571 354.1438 16.0383 354.4870 322.2298 82.7728 1.6152 342.6133 22.2318 359.2626 356.2328 61.0157 43.6506 7.3499 337.1816 354.1143 28.2897 275.9230 353.2301 18.0023 1.6250 357.0518 358.5329 359.4705 10.8988 356.1365 358.4438 352.0131 21.7903 0.8584 350.6514 0.6400 358.8998 19.4131 8.9154 357.3226 345.1725 337.3235 
-5.6774 88.7713 189.0916 2.5874 359.4120 177.2090 1.4783 359.0531 358.2317 359.0028 11.8241 358.3222 0.6307 351.5984 1.1336 2.2584 18.2059 0.7180 339.0740 358.5318 7.9511 301.6184 32.0619 354.1371 16.1668 354.4311 322.2877 82.6987 1.5848 342.6772 22.2352 359.2623 356.2520 61.0468 43.6885 7.3059 337.1151 354.1265 28.3079 275.9153 353.2728 17.9639 1.6193 357.1101 358.6193 359.5083 10.8113 355.9709 358.4760 352.0001 21.8265 0.8471 350.6747 0.6305 358.9086 19.3998 8.8643 357.3399 345.1660 337.3770 
-5.6862 88.7714 189.0845 2.5812 359.4057 177.2148 1.4623 359.0629 358.2290 359.0020 11.8188 358.3209 0.6238 351.5744 1.1186 2.2613 18.2231 0.7032 339.0825 358.5517 7.8998 301.5622 31.8381 354.2103 16.0099 354.5141 322.2898 82.8054 1.5554 342.5166 22.2385 359.2565 356.2345 61.0082 43.7257 7.3462 337.1102 354.1309 28.3003 275.8792 353.2676 17.9079 1.6072 357.0395 358.5360 359.4703 10.9481 356.0877 358.5112 351.9402 21.8254 0.8299 350.6780 0.6696 358.9265 19.3921 8.8159 357.3399 345.1605 337.3791 
-5.6950 88.7711 189.0750 2.5807 359.3947 177.2189 1.4452 359.0688 358.2301 359.0089 11.8026 358.3217 0.5794 351.5679 1.0974 2.3038 18.2392 0.6770 339.0753 358.5275 7.9368 301.5537 32.0332 354.2141 16.1900 354.4236 322.3398 82.6951 1.5465 342.6587 22.2437 359.2642 356.2392 60.9890 43.7140 7.3482 337.1188 354.1571 28.3020 275.9333 353.2374 17.8671 1.6104 357.0114 358.4892 359.4601 10.9829 356.0377 358.5083 351.9093 21.8776 0.8213 350.6769 0.6738 358.9271 19.3820 8.8261 357.3301 345.1457 337.3754 
-5.7061 88.7718 189.0588 2.5703 359.3988 177.2132 1.4048 359.0685 358.2417 359.0355 11.8194 358.3307 0.5634 351.5371 1.0767 2.2976 18.2840 0.6595 339.0622 358.5329 7.9368 301.5433 32.0051 354.2272 16.1564 354.4723 322.3910 82.7404 1.5068 342.6234 22.2371 359.2731 356.2426 60.9662 43.7208 7.3689 337.0944 354.1443 28.3140 275.9785 353.2635 17.8509 1.5915 357.0102 358.4956 359.4408 11.0187 356.0900 358.5299 351.8997 21.8692 0.7958 350.7018 0.7023 358.9489 19.3662 8.8135 357.3607 345.1272 337.3730 
-5.7193 88.7712 189.0503 2.5756 359.3840 177.2256 1.3847 359.0574 358.2459 359.0632 11.8444 358.3328 0.4887 351.4604 1.0288 2.3751 18.3638 0.5981 339.0487 358.5494 7.9280 301.5427 32.0054 354.2142 16.0866 354.4948 322.4345 83.0569 1.4657 342.7420 22.2170 359.2521 356.2239 60.9590 43.7341 7.3945 337.0592 354.1314 28.3315 275.9284 353.2562 17.8572 1.5927 356.9409 358.4126 359.4350 11.1173 356.0811 358.5358 351.8445 21.9097 0.7851 350.7004 0.6875 358.9588 19.3521 8.7536 357.3451 345.1231 337.4340 
-5.7339 88.7712 189.0360 2.5733 359.3927 177.2262 1.3670 359.0750 358.2509 359.0672 11.8493 358.3374 0.4558 351.4227 0.9956 2.4075 18.4144 0.5635 339.0520 358.5214 7.9355 301.4969 32.0199 354.2308 16.2009 354.4326 322.4560 82.7231 1.4709 342.6164 22.2121 359.2514 356.2260 60.9577 43.7494 7.3955 337.0595 354.1479 28.3263 275.9989 353.2551 17.8461 1.5876 356.9432 358.3943 359.4101 11.1460 356.1030 358.5271 351.8199 21.9116 0.7625 350.7326 0.7173 358.9779 19.3291 8.7488 357.3895 345.1216 337.4375 
-5.7518 88.7723 189.0183 2.5662 359.4065 177.2264 1.3556 359.1010 358.2554 359.0569 11.8417 358.3426 0.4409 351.4010 0.9793 2.4202 18.4529 0.5476 339.0471 358.5348 7.9385 301.4810 32.0227 354.2528 16.1193 354.5035 322.5303 83.0473 1.3733 342.7357 22.2174 359.2674 356.2344 60.9426 43.7214 7.3968 337.1818 354.2009 28.2105 275.7613 352.8308 18.1341 1.5712 356.9604 358.4498 359.4166 11.1598 356.0177 358.5742 351.8194 21.9485 0.7284 350.7665 0.7346 359.0080 19.3083 8.7304 357.9558 345.0050 337.5664 
-5.7703 88.7734 189.0056 2.5641 359.3985 177.2315 1.3566 359.1129 358.2491 359.0369 11.8166 358.3389 0.3906 351.5580 0.8528 2.4380 18.4080 0.4199 339.0513 358.5239 7.9278 301.4395 31.9906 354.3169 16.1253 354.4851 322.5120 83.0469 1.3675 342.7195 22.2239 359.2777 356.2473 60.9231 43.7427 7.4024 337.1767 354.1987 28.1957 275.8045 352.7565 18.1795 1.5611 356.9496 358.4660 359.4082 11.1762 356.0130 358.5685 351.8068 21.9334 0.6986 350.7816 0.7547 359.0354 19.2845 8.7005 357.4172 345.0909 337.4656 
-5.7970 88.7727 188.9909 2.5495 359.3963 177.2325 1.3465 359.1189 358.2475 359.0185 11.8199 358.3379 0.3661 351.5526 0.8305 2.4589 18.4419 0.3972 339.0445 358.5111 7.9623 301.4373 32.0961 354.3221 16.1983 354.4625 322.5591 82.9876 1.3165 342.8010 22.2171 359.2642 356.2685 60.9185 43.7509 7.4014 337.1570 354.1889 28.2207 275.7973 352.7101 18.1986 1.5313 356.9425 358.4556 359.4000 11.2009 356.0189 358.5872 351.7844 21.9356 0.6405 350.8048 0.7952 359.0950 19.2483 8.6352 357.3799 345.0858 337.4538 
-5.8226 88.7744 188.9787 2.5382 359.3852 177.2369 1.3241 359.1256 358.2458 359.0187 11.8073 358.3374 0.3206 351.5255 0.8056 2.5028 18.5030 0.3675 339.0328 358.5166 7.9844 301.4295 32.1509 354.3232 16.2418 354.4561 322.6289 82.8705 1.2844 342.8071 22.2188 359.2668 356.2753 60.8633 43.7737 7.4292 337.2074 354.1926 28.2178 275.8122 352.6957 18.2245 1.5106 356.9321 358.4742 359.3888 11.2109 355.9949 358.6144 351.7823 21.9503 0.5921 350.8125 0.8283 359.1352 19.2319 8.5824 357.9496 344.9631 337.6335 
-5.8512 88.7761 188.9566 2.5307 359.3942 177.2454 1.3048 359.1404 358.2525 359.0156 11.8096 358.3441 0.2846 351.4900 0.7725 2.5419 18.5836 0.3268 339.0163 358.5150 8.0260 301.4503 32.3408 354.2945 16.4297 354.3790 322.6878 82.4992 1.3137 342.8470 22.2144 359.2671 356.2691 60.8209 43.8008 7.4674 337.0478 354.1387 28.1376 276.1352 352.4693 17.5329 1.4916 356.9986 358.5414 359.3928 11.1213 355.9140 358.6260 351.8177 21.9522 0.5445 350.8598 0.8874 359.1834 19.1848 8.5144 357.5050 345.0249 337.5758 
-5.8853 88.7761 188.9365 2.5175 359.3955 177.2647 1.2859 359.1515 358.2508 359.0078 11.7991 358.3444 0.2314 351.4712 0.7269 2.5953 18.6436 0.2730 339.0058 358.5117 8.0215 301.4437 32.4408 354.3195 16.4858 354.3745 322.7363 82.4952 1.2789 342.9251 22.2084 359.2542 356.2595 60.8047 43.8550 7.4741 336.9671 354.1255 28.1218 276.2688 352.4218 17.3680 1.4641 357.0048 358.5276 359.3755 11.1279 355.9183 358.6568 351.8116 21.9405 0.4856 350.8983 0.9353 359.2297 19.1446 8.4911 357.3603 345.0331 337.5358 
-5.9182 88.7788 188.9183 2.5093 359.3914 177.2723 1.2651 359.1604 358.2558 359.0056 11.7898 358.3495 0.2096 351.4673 0.7061 2.6384 18.6742 0.2468 338.9920 358.5338 7.9970 301.4117 32.3315 354.3629 16.4212 354.4260 322.7257 82.4817 1.2669 342.8427 22.2111 359.2815 356.2648 60.7497 43.8455 7.5162 336.9905 354.1538 28.1090 276.3466 352.4030 17.2266 1.4443 356.9995 358.5266 359.3559 11.1439 355.9340 358.6876 351.8138 21.9292 0.4449 350.9228 0.9922 359.2591 19.1149 8.4341 357.3709 345.0113 337.5537 
-5.9560 88.7815 188.8951 2.5006 359.3880 177.2763 1.2285 359.1561 358.2724 359.0209 11.8060 358.3655 0.1601 351.4131 0.6610 2.6973 18.7818 0.1890 338.9838 358.5085 7.9876 301.3742 32.3211 354.3938 16.4385 354.4178 322.7005 82.4980 1.2696 342.8106 22.2398 359.2624 356.1940 60.6044 43.6211 7.6401 336.9818 354.1562 28.1743 276.6548 352.2987 16.9527 1.4162 356.9898 358.5236 359.3419 11.1799 355.9690 358.7184 351.7831 21.8927 0.4013 350.9550 1.0608 359.2856 19.0839 8.4163 357.3819 345.0349 337.5575 
-5.9984 88.7831 188.8717 2.4867 359.3777 177.2972 1.2064 359.1477 358.2666 359.0108 11.8096 358.3603 0.1151 351.3942 0.6128 2.7716 18.8435 0.1292 338.9837 358.5254 7.9629 301.3420 32.2654 354.4272 16.3420 354.4740 322.7325 82.5549 1.2232 342.7195 22.2543 359.2336 356.1641 60.5535 43.5838 7.6663 337.0732 354.1812 28.2228 276.5178 352.3214 17.2276 1.3812 356.9527 358.4743 359.3188 11.2495 355.9956 358.8364 351.7591 21.9168 0.3481 350.9785 1.1039 359.3248 19.0502 8.3625 357.2451 345.0622 337.6390 
-6.0454 88.7851 188.8495 2.4720 359.3681 177.3165 1.1856 359.1541 358.2539 359.0007 11.7832 358.3490 1.5688 351.9764 0.6462 359.5012 17.6605 0.5866 338.9811 358.5111 7.9496 301.2765 32.1729 354.4843 16.3031 354.4825 322.7065 82.5595 1.2389 342.6398 22.2667 359.2312 356.1707 60.4840 43.5996 7.6877 337.2355 354.2235 28.2700 276.3847 352.4261 17.6695 1.3416 356.9827 358.5358 359.3222 11.1882 355.9360 358.8689 351.7847 21.8973 0.2952 350.9984 1.1498 359.3527 19.0260 8.3087 357.2651 345.0262 337.6747 
-6.0939 88.7868 188.8301 2.4616 359.3490 177.3337 1.1489 359.1607 358.2382 359.0189 11.7471 358.3309 5.8076 353.6440 0.6805 350.0280 14.0432 1.5221 338.9725 358.5106 7.9725 301.2281 32.1797 354.5132 16.2589 354.5082 322.7559 82.6326 1.2166 342.5896 22.2547 359.2586 356.1869 60.4254 43.6827 7.7616 337.3339 354.2262 28.3779 276.3482 352.9508 18.1184 1.3074 356.9510 358.5063 359.3048 11.2279 355.9267 358.8987 351.7509 21.9161 0.2512 351.0001 1.1935 359.3690 19.0124 8.2504 357.3178 344.9938 337.7014 
-6.1476 88.7891 188.8136 2.4537 359.3135 177.3407 1.0981 359.1418 358.2426 359.0551 11.7404 358.3326 5.7803 353.6092 0.6602 350.2149 14.2222 1.5547 338.9644 358.5032 7.9868 301.1625 32.1363 354.5290 16.2239 354.5162 322.7639 82.6605 1.2272 342.5030 22.2327 359.2539 356.1955 60.3581 43.7734 7.8333 337.3683 354.2114 28.4233 276.2563 353.1359 18.4035 1.2725 356.8971 358.4701 359.2826 11.2784 355.9544 358.9237 351.7075 21.9304 0.2053 350.9847 1.2541 359.3803 19.0050 8.2611 357.3658 344.9929 337.6568 
-6.2075 88.7912 188.7948 2.4465 359.2794 177.3548 1.0525 359.1162 358.2498 359.0872 11.7539 358.3356 5.7993 353.5371 0.6242 350.1670 14.3044 1.5264 338.9298 358.5207 7.9058 301.1427 32.4600 354.6613 16.4729 354.3785 322.8202 82.6152 1.1632 342.7984 22.2157 359.2455 356.1844 60.3011 43.8048 7.8777 337.3849 354.1883 28.4454 276.1950 353.1656 18.3991 1.2286 356.8227 358.4156 359.2628 11.3693 356.0072 358.9476 351.6568 21.9328 0.1543 350.9640 1.3111 359.4026 19.0084 8.2452 357.4049 344.9675 337.6172 
-6.2671 88.7933 188.7754 2.4520 359.2467 177.3525 1.0236 359.1062 358.2491 359.1076 11.7370 358.3328 5.8088 353.5121 0.5941 350.1497 14.3496 1.5036 338.9101 358.5396 7.8677 301.1087 32.5543 354.7292 16.5726 354.3531 322.8386 82.6355 1.1457 342.9201 22.2137 359.2554 356.1807 60.2279 43.8136 7.9234 337.3641 354.1833 28.4461 276.3830 353.1505 18.4864 1.2025 356.8096 358.2433 359.2102 11.3545 356.1786 358.9956 351.6591 21.9462 0.1230 350.9392 1.3726 359.4195 19.0152 8.1782 357.4455 344.9373 337.6332 
-6.3315 88.7954 188.7544 2.4620 359.2192 177.3475 0.9953 359.1072 358.2506 359.1286 11.7076 358.3323 5.8310 353.4837 0.5736 350.1032 14.4163 1.4878 338.9085 358.5284 7.8599 301.0222 32.4666 354.7666 16.5580 354.3814 322.8488 82.6959 1.1253 342.8547 22.2167 359.2413 356.1849 60.1641 43.8008 7.9470 337.3337 354.1818 28.4653 276.4787 353.1229 18.4917 1.1798 356.8001 358.1493 359.1628 11.3590 356.2467 359.0059 351.6295 22.0061 0.0932 350.9211 1.4119 359.4327 19.0164 8.1057 357.4763 344.8860 337.6678 
-6.4006 88.7969 188.7320 2.4709 359.1914 177.3268 0.9564 359.0996 358.2658 359.1552 11.7004 358.3451 5.8543 353.4257 0.5494 350.0514 14.4964 1.4716 338.9035 358.5350 7.8334 300.9415 32.2975 354.8161 16.4001 354.4788 322.8662 82.9882 1.0527 342.7462 22.2123 359.2403 356.1822 60.0900 43.8236 7.9955 337.3191 354.1830 28.4573 276.5391 353.1089 18.4397 1.1487 356.7854 358.1484 359.1502 11.3731 356.2299 358.9793 351.5807 22.0348 0.0630 350.8965 1.4739 359.4455 19.0264 8.0513 357.4971 344.8461 337.6806 
